<svg viewBox="0 0 400 300" xmlns="http://www.w3.org/2000/svg">
  <defs>
    <linearGradient id="accessoryBg" x1="0%" y1="0%" x2="100%" y2="100%">
      <stop offset="0%" style="stop-color:#8B5CF6;stop-opacity:1" />
      <stop offset="100%" style="stop-color:#7C3AED;stop-opacity:1" />
    </linearGradient>
    <radialGradient id="gemGradient" cx="50%" cy="50%" r="50%">
      <stop offset="0%" style="stop-color:#FBBF24;stop-opacity:1" />
      <stop offset="100%" style="stop-color:#F59E0B;stop-opacity:1" />
    </radialGradient>
  </defs>
  
  <!-- Fundo -->
  <rect width="400" height="300" rx="16" fill="url(#accessoryBg)"/>
  
  <!-- Óculos (centro superior) -->
  <circle cx="160" cy="80" r="22" fill="#1F2937" stroke="#FBBF24" stroke-width="3"/>
  <circle cx="210" cy="80" r="22" fill="#1F2937" stroke="#FBBF24" stroke-width="3"/>
  <circle cx="160" cy="80" r="18" fill="#111827"/>
  <circle cx="210" cy="80" r="18" fill="#111827"/>
  <line x1="182" y1="80" x2="188" y2="80" stroke="#FBBF24" stroke-width="4"/>
  <line x1="138" y1="80" x2="120" y2="82" stroke="#FBBF24" stroke-width="3"/>
  <line x1="232" y1="80" x2="250" y2="82" stroke="#FBBF24" stroke-width="3"/>
  
  <!-- Relógio (esquerda) -->
  <circle cx="120" cy="180" r="28" fill="#F9FAFB" stroke="#FBBF24" stroke-width="3"/>
  <circle cx="120" cy="180" r="22" fill="#F3F4F6"/>
  <circle cx="120" cy="180" r="18" fill="#EF4444"/>
  <line x1="120" y1="180" x2="120" y2="165" stroke="#1F2937" stroke-width="4"/>
  <line x1="120" y1="180" x2="130" y2="180" stroke="#1F2937" stroke-width="3"/>
  <rect x="98" y="195" width="44" height="10" fill="#FBBF24" rx="5"/>
  
  <!-- Colar (centro) -->
  <circle cx="200" cy="180" r="32" fill="none" stroke="#FBBF24" stroke-width="6"/>
  <circle cx="200" cy="148" r="12" fill="url(#gemGradient)" stroke="#F59E0B" stroke-width="2"/>
  <polygon points="200,136 206,156 194,156" fill="#FBBF24"/>
  
  <!-- Carteira (direita) -->
  <rect x="250" y="140" width="72" height="48" rx="6" fill="#92400E" stroke="#FBBF24" stroke-width="3"/>
  <rect x="253" y="143" width="66" height="42" rx="4" fill="#B45309"/>
  <rect x="270" y="130" width="20" height="12" rx="3" fill="#92400E"/>
  <circle cx="265" cy="164" r="4" fill="#FBBF24"/>
  <rect x="260" y="177" width="52" height="4" rx="2" fill="#78350F"/>
  
  <!-- Anel (canto inferior direito) -->
  <circle cx="320" cy="220" r="18" fill="#F9FAFB" stroke="#FBBF24" stroke-width="3"/>
  <circle cx="320" cy="220" r="12" fill="#FBBF24"/>
  <circle cx="320" cy="220" r="6" fill="#EF4444"/>
  
  <!-- Brincos (cantos) -->
  <circle cx="70" cy="120" r="10" fill="#FBBF24" stroke="#F59E0B" stroke-width="2"/>
  <circle cx="70" cy="120" r="5" fill="#FEF3C7"/>
  <circle cx="70" cy="135" r="6" fill="#FBBF24"/>
  
  <circle cx="330" cy="120" r="10" fill="#FBBF24" stroke="#F59E0B" stroke-width="2"/>
  <circle cx="330" cy="120" r="5" fill="#FEF3C7"/>
  <circle cx="330" cy="135" r="6" fill="#FBBF24"/>
  
  <!-- Laço (inferior) -->
  <path d="M 80 250 Q 100 238 120 250 Q 132 262 120 274 Q 100 286 80 274 Q 68 262 80 250" fill="#EC4899" stroke="#F9A8D4" stroke-width="2"/>
  <path d="M 86 256 Q 96 252 106 256 Q 112 262 106 268 Q 96 272 86 268 Q 80 262 86 256" fill="#FDF2F8"/>
  
  <!-- Detalhes brilhantes -->
  <circle cx="180" cy="50" r="3" fill="#FBBF24" opacity="0.8"/>
  <circle cx="220" cy="60" r="2" fill="#F59E0B" opacity="0.8"/>
  <circle cx="280" cy="100" r="2" fill="#FBBF24" opacity="0.8"/>
  <circle cx="150" cy="250" r="2" fill="#F59E0B" opacity="0.8"/>
  <circle cx="350" cy="180" r="3" fill="#FBBF24" opacity="0.8"/>
</svg>