<svg viewBox="0 0 400 600" xmlns="http://www.w3.org/2000/svg">
  <defs>
    <!-- Main gradient background -->
    <linearGradient id="mainGradientAcc" x1="0%" y1="0%" x2="100%" y2="100%">
      <stop offset="0%" style="stop-color:#9b59b6;stop-opacity:0.95" />
      <stop offset="50%" style="stop-color:#8e44ad;stop-opacity:0.9" />
      <stop offset="100%" style="stop-color:#732d91;stop-opacity:0.95" />
    </linearGradient>
    
    <!-- Overlay gradient -->
    <linearGradient id="overlayGradientAcc" x1="0%" y1="0%" x2="100%" y2="100%">
      <stop offset="0%" style="stop-color:#000000;stop-opacity:0.1" />
      <stop offset="100%" style="stop-color:#000000;stop-opacity:0.4" />
    </linearGradient>
    
    <!-- Decorative elements -->
    <radialGradient id="decorGradientAcc" cx="50%" cy="50%" r="50%">
      <stop offset="0%" style="stop-color:#ffffff;stop-opacity:0.3" />
      <stop offset="100%" style="stop-color:#ffffff;stop-opacity:0.05" />
    </radialGradient>
    
    <!-- Gold accent -->
    <linearGradient id="goldAccent" x1="0%" y1="0%" x2="100%" y2="100%">
      <stop offset="0%" style="stop-color:#f1c40f;stop-opacity:0.8" />
      <stop offset="100%" style="stop-color:#f39c12;stop-opacity:0.6" />
    </linearGradient>
  </defs>
  
  <!-- Background -->
  <rect width="400" height="600" fill="url(#mainGradientAcc)" />
  
  <!-- Decorative circles -->
  <circle cx="300" cy="120" r="80" fill="url(#decorGradientAcc)" />
  <circle cx="100" cy="200" r="50" fill="url(#decorGradientAcc)" />
  <circle cx="320" cy="350" r="60" fill="url(#decorGradientAcc)" />
  <circle cx="80" cy="450" r="45" fill="url(#decorGradientAcc)" />
  
  <!-- Abstract jewelry elements -->
  <circle cx="150" cy="160" r="25" fill="rgba(255,255,255,0.2)" stroke="url(#goldAccent)" stroke-width="2" />
  <circle cx="150" cy="160" r="15" fill="none" stroke="rgba(255,255,255,0.3)" stroke-width="1" />
  
  <!-- Necklace chain -->
  <path d="M100 280 Q150 270 200 280 Q250 290 300 280 Q270 300 220 295 Q170 290 120 295 Q110 288 100 280" 
        stroke="url(#goldAccent)" stroke-width="3" fill="none" />
  
  <!-- Elegant curves and patterns -->
  <path d="M80 180 Q200 160 320 180 Q260 200 200 190 Q140 180 80 180" 
        fill="rgba(255,255,255,0.1)" />
  
  <path d="M60 350 Q200 330 340 350 Q280 370 200 360 Q120 350 60 350" 
        fill="rgba(255,255,255,0.08)" />
  
  <!-- Sunglasses silhouette -->
  <ellipse cx="220" cy="220" rx="20" ry="12" fill="rgba(255,255,255,0.25)" />
  <ellipse cx="260" cy="220" rx="20" ry="12" fill="rgba(255,255,255,0.25)" />
  <path d="M200 220 Q210 215 220 220" stroke="rgba(255,255,255,0.3)" stroke-width="2" fill="none" />
  <path d="M240 220 Q250 215 260 220" stroke="rgba(255,255,255,0.3)" stroke-width="2" fill="none" />
  
  <!-- Decorative sparkles -->
  <circle cx="130" cy="120" r="3" fill="rgba(255,255,255,0.6)" />
  <circle cx="270" cy="140" r="2" fill="rgba(255,255,255,0.5)" />
  <circle cx="180" cy="300" r="2.5" fill="rgba(255,255,255,0.55)" />
  <circle cx="310" cy="280" r="2" fill="rgba(255,255,255,0.4)" />
  <circle cx="120" cy="380" r="2.5" fill="rgba(255,255,255,0.45)" />
  <circle cx="280" cy="420" r="2" fill="rgba(255,255,255,0.4)" />
  
  <!-- Diamond shapes -->
  <path d="M250 340 L260 350 L250 360 L240 350 Z" fill="rgba(255,255,255,0.3)" />
  <path d="M160 380 L168 388 L160 396 L152 388 Z" fill="rgba(255,255,255,0.25)" />
  
  <!-- Overlay for text readability -->
  <rect width="400" height="600" fill="url(#overlayGradientAcc)" />
</svg>