<svg viewBox="0 0 400 600" xmlns="http://www.w3.org/2000/svg">
  <defs>
    <!-- Main gradient background -->
    <linearGradient id="mainGradient" x1="0%" y1="0%" x2="100%" y2="100%">
      <stop offset="0%" style="stop-color:#ff6b9d;stop-opacity:0.95" />
      <stop offset="50%" style="stop-color:#e55a87;stop-opacity:0.9" />
      <stop offset="100%" style="stop-color:#c44569;stop-opacity:0.95" />
    </linearGradient>
    
    <!-- Overlay gradient -->
    <linearGradient id="overlayGradient" x1="0%" y1="0%" x2="100%" y2="100%">
      <stop offset="0%" style="stop-color:#000000;stop-opacity:0.1" />
      <stop offset="100%" style="stop-color:#000000;stop-opacity:0.4" />
    </linearGradient>
    
    <!-- Decorative elements -->
    <radialGradient id="decorGradient" cx="50%" cy="50%" r="50%">
      <stop offset="0%" style="stop-color:#ffffff;stop-opacity:0.3" />
      <stop offset="100%" style="stop-color:#ffffff;stop-opacity:0.05" />
    </radialGradient>
  </defs>
  
  <!-- Background -->
  <rect width="400" height="600" fill="url(#mainGradient)" />
  
  <!-- Decorative circles -->
  <circle cx="350" cy="80" r="60" fill="url(#decorGradient)" />
  <circle cx="50" cy="150" r="40" fill="url(#decorGradient)" />
  <circle cx="320" cy="450" r="80" fill="url(#decorGradient)" />
  <circle cx="80" cy="500" r="30" fill="url(#decorGradient)" />
  
  <!-- Abstract dress silhouette -->
  <path d="M200 120 Q180 140 160 180 Q150 220 140 280 Q135 320 130 360 Q125 400 270 400 Q265 360 260 320 Q255 280 245 220 Q235 180 220 140 Q200 120 200 120 Z" 
        fill="rgba(255,255,255,0.15)" />
  
  <!-- Elegant curves -->
  <path d="M100 100 Q200 80 300 120 Q250 160 200 140 Q150 120 100 100" 
        fill="rgba(255,255,255,0.1)" />
  
  <path d="M80 250 Q200 230 320 270 Q260 310 200 290 Q140 270 80 250" 
        fill="rgba(255,255,255,0.08)" />
  
  <!-- Subtle pattern -->
  <circle cx="120" cy="200" r="3" fill="rgba(255,255,255,0.4)" />
  <circle cx="280" cy="180" r="2" fill="rgba(255,255,255,0.3)" />
  <circle cx="160" cy="320" r="2.5" fill="rgba(255,255,255,0.35)" />
  <circle cx="240" cy="350" r="2" fill="rgba(255,255,255,0.3)" />
  <circle cx="300" cy="300" r="1.5" fill="rgba(255,255,255,0.25)" />
  
  <!-- Overlay for text readability -->
  <rect width="400" height="600" fill="url(#overlayGradient)" />
</svg>