<svg viewBox="0 0 400 600" xmlns="http://www.w3.org/2000/svg">
  <defs>
    <!-- Main gradient background -->
    <linearGradient id="mainGradientMasc" x1="0%" y1="0%" x2="100%" y2="100%">
      <stop offset="0%" style="stop-color:#4a90e2;stop-opacity:0.95" />
      <stop offset="50%" style="stop-color:#357abd;stop-opacity:0.9" />
      <stop offset="100%" style="stop-color:#2c5f96;stop-opacity:0.95" />
    </linearGradient>
    
    <!-- Overlay gradient -->
    <linearGradient id="overlayGradientMasc" x1="0%" y1="0%" x2="100%" y2="100%">
      <stop offset="0%" style="stop-color:#000000;stop-opacity:0.1" />
      <stop offset="100%" style="stop-color:#000000;stop-opacity:0.4" />
    </linearGradient>
    
    <!-- Decorative elements -->
    <radialGradient id="decorGradientMasc" cx="50%" cy="50%" r="50%">
      <stop offset="0%" style="stop-color:#ffffff;stop-opacity:0.3" />
      <stop offset="100%" style="stop-color:#ffffff;stop-opacity:0.05" />
    </radialGradient>
  </defs>
  
  <!-- Background -->
  <rect width="400" height="600" fill="url(#mainGradientMasc)" />
  
  <!-- Decorative circles -->
  <circle cx="80" cy="100" r="70" fill="url(#decorGradientMasc)" />
  <circle cx="320" cy="200" r="50" fill="url(#decorGradientMasc)" />
  <circle cx="100" cy="400" r="60" fill="url(#decorGradientMasc)" />
  <circle cx="350" cy="500" r="40" fill="url(#decorGradientMasc)" />
  
  <!-- Abstract suit silhouette -->
  <path d="M200 100 Q170 120 150 160 Q140 200 135 250 Q130 300 125 350 Q120 400 280 400 Q275 350 270 300 Q265 250 255 200 Q245 160 225 120 Q200 100 200 100 Z" 
        fill="rgba(255,255,255,0.15)" />
  
  <!-- Tie shape -->
  <path d="M195 130 Q200 125 205 130 Q210 150 208 180 Q205 210 200 240 Q195 210 192 180 Q190 150 195 130" 
        fill="rgba(255,255,255,0.2)" />
  
  <!-- Geometric patterns -->
  <path d="M50 150 Q150 130 250 150 Q200 180 150 170 Q100 160 50 150" 
        fill="rgba(255,255,255,0.1)" />
  
  <path d="M120 300 Q200 280 280 300 Q230 330 200 320 Q170 310 120 300" 
        fill="rgba(255,255,255,0.08)" />
  
  <!-- Professional details -->
  <rect x="180" y="200" width="40" height="2" fill="rgba(255,255,255,0.3)" />
  <rect x="180" y="210" width="40" height="2" fill="rgba(255,255,255,0.25)" />
  <rect x="180" y="220" width="40" height="2" fill="rgba(255,255,255,0.2)" />
  
  <!-- Subtle pattern -->
  <circle cx="140" cy="180" r="2.5" fill="rgba(255,255,255,0.4)" />
  <circle cx="260" cy="200" r="2" fill="rgba(255,255,255,0.3)" />
  <circle cx="180" cy="340" r="2.5" fill="rgba(255,255,255,0.35)" />
  <circle cx="220" cy="370" r="2" fill="rgba(255,255,255,0.3)" />
  
  <!-- Overlay for text readability -->
  <rect width="400" height="600" fill="url(#overlayGradientMasc)" />
</svg>