<svg viewBox="0 0 350 200" xmlns="http://www.w3.org/2000/svg"> <defs> <linearGradient id="masculineBg" x1="0%" y1="0%" x2="100%" y2="100%"> <stop offset="0%" style="stop-color:#4682B4;stop-opacity:1" /> <stop offset="100%" style="stop-color:#1E90FF;stop-opacity:1" /> </linearGradient> <linearGradient id="suitGradient" x1="0%" y1="0%" x2="100%" y2="100%"> <stop offset="0%" style="stop-color:#2F4F4F;stop-opacity:1" /> <stop offset="100%" style="stop-color:#708090;stop-opacity:1" /> </linearGradient> </defs> <rect width="350" height="200" fill="url(#masculineBg)"/> <path d="M 120 50 L 180 50 L 180 60 L 170 65 L 170 140 L 130 140 L 130 65 L 120 60 Z" fill="url(#suitGradient)"/> <rect x="135" y="55" width="30" height="80" fill="#FFF"/> <path d="M 145 60 L 155 60 L 155 110 L 150 120 L 145 110 Z" fill="#8B0000"/> <circle cx="150" cy="70" r="1.5" fill="#C0C0C0"/> <circle cx="150" cy="80" r="1.5" fill="#C0C0C0"/> <circle cx="150" cy="90" r="1.5" fill="#C0C0C0"/> <ellipse cx="135" cy="150" rx="20" ry="8" fill="#000"/> <ellipse cx="165" cy="150" rx="20" ry="8" fill="#000"/> <circle cx="80" cy="80" r="15" fill="#C0C0C0"/> <circle cx="80" cy="80" r="12" fill="#000"/> <line x1="80" y1="80" x2="80" y2="72" stroke="#FFF" stroke-width="2"/> <line x1="80" y1="80" x2="85" y2="80" stroke="#FFF" stroke-width="1"/> <rect x="70" y="85" width="20" height="6" fill="#8B4513"/> <rect x="220" y="100" width="40" height="25" rx="3" fill="#654321"/> <rect x="222" y="102" width="36" height="21" rx="2" fill="#8B4513"/> <circle cx="250" cy="60" r="12" fill="none" stroke="#000" stroke-width="2"/> <circle cx="280" cy="60" r="12" fill="none" stroke="#000" stroke-width="2"/> <line x1="262" y1="60" x2="268" y2="60" stroke="#000" stroke-width="2"/> <rect x="40" y="40" width="15" height="15" fill="#B0C4DE" opacity="0.8"/> <rect x="300" y="160" width="15" height="15" fill="#B0C4DE" opacity="0.8"/> </svg>
