<svg viewBox="0 0 350 200" xmlns="http://www.w3.org/2000/svg"> <defs> <linearGradient id="feminineBg" x1="0%" y1="0%" x2="100%" y2="100%"> <stop offset="0%" style="stop-color:#FFB6C1;stop-opacity:1" /> <stop offset="100%" style="stop-color:#FFC0CB;stop-opacity:1" /> </linearGradient> <linearGradient id="dressGradient" x1="0%" y1="0%" x2="100%" y2="100%"> <stop offset="0%" style="stop-color:#FF69B4;stop-opacity:1" /> <stop offset="100%" style="stop-color:#FF1493;stop-opacity:1" /> </linearGradient> </defs> <rect width="350" height="200" fill="url(#feminineBg)"/> <path d="M 120 60 Q 130 50 140 60 L 140 70 Q 150 80 160 70 L 160 60 Q 170 50 180 60 L 180 140 Q 170 150 150 150 Q 130 150 120 140 Z" fill="url(#dressGradient)"/> <circle cx="130" cy="65" r="2" fill="#FFF"/> <circle cx="150" cy="65" r="2" fill="#FFF"/> <circle cx="170" cy="65" r="2" fill="#FFF"/> <ellipse cx="130" cy="155" rx="15" ry="6" fill="#8B4513"/> <ellipse cx="170" cy="155" rx="15" ry="6" fill="#8B4513"/> <path d="M 220 80 Q 240 75 260 80 L 260 120 Q 240 125 220 120 Z" fill="#DA70D6"/> <path d="M 235 70 Q 245 65 255 70" stroke="#DA70D6" stroke-width="3" fill="none"/> <circle cx="90" cy="40" r="8" fill="#FFD700"/> <circle cx="90" cy="40" r="4" fill="#FFF"/> <circle cx="270" cy="50" r="6" fill="#FFD700"/> <circle cx="270" cy="50" r="3" fill="#FFF"/> <circle cx="60" cy="150" r="8" fill="#FF69B4" opacity="0.7"/> <circle cx="55" cy="145" r="6" fill="#FF1493" opacity="0.7"/> <circle cx="65" cy="145" r="6" fill="#FF1493" opacity="0.7"/> <circle cx="60" cy="140" r="6" fill="#FF1493" opacity="0.7"/> <circle cx="60" cy="155" r="6" fill="#FF1493" opacity="0.7"/> </svg>
